<!-- ==== usage example ==== -->

<!--    <svg class="icon">                                                   -->
<!--        <use xlink:href="svg/icon-sprite.svg#youtube-square"></use>      -->
<!--    </svg>                                                               -->

<svg display="none" xmlns="http://www.w3.org/2000/svg">
    <symbol id="twitter" viewBox="0 0 512 512">
        <g>
            <path d="M512,97.248c-19.04,8.352-39.328,13.888-60.48,16.576c21.76-12.992,38.368-33.408,46.176-58.016
			c-20.288,12.096-42.688,20.64-66.56,25.408C411.872,60.704,384.416,48,354.464,48c-58.112,0-104.896,47.168-104.896,104.992
			c0,8.32,0.704,16.32,2.432,23.936c-87.264-4.256-164.48-46.08-216.352-109.792c-9.056,15.712-14.368,33.696-14.368,53.056
			c0,36.352,18.72,68.576,46.624,87.232c-16.864-0.32-33.408-5.216-47.424-12.928c0,0.32,0,0.736,0,1.152
			c0,51.008,36.384,93.376,84.096,103.136c-8.544,2.336-17.856,3.456-27.52,3.456c-6.72,0-13.504-0.384-19.872-1.792
			c13.6,41.568,52.192,72.128,98.08,73.12c-35.712,27.936-81.056,44.768-130.144,44.768c-8.608,0-16.864-0.384-25.12-1.44
			C46.496,446.88,101.6,464,161.024,464c193.152,0,298.752-160,298.752-298.688c0-4.64-0.16-9.12-0.384-13.568
			C480.224,136.96,497.728,118.496,512,97.248z"/>
        </g>
    </symbol>
    <symbol id="twitter-circle" viewBox="0 0 512 512">
        <g>
            <path d="m256 0c-141.363281 0-256 114.636719-256 256s114.636719 256 256 256 256-114.636719 256-256-114.636719-256-256-256zm116.886719 199.601562c.113281 2.519532.167969 5.050782.167969 7.59375 0 77.644532-59.101563 167.179688-167.183594 167.183594h.003906-.003906c-33.183594 0-64.0625-9.726562-90.066406-26.394531 4.597656.542969 9.277343.8125 14.015624.8125 27.53125 0 52.867188-9.390625 72.980469-25.152344-25.722656-.476562-47.410156-17.464843-54.894531-40.8125 3.582031.6875 7.265625 1.0625 11.042969 1.0625 5.363281 0 10.558593-.722656 15.496093-2.070312-26.886718-5.382813-47.140624-29.144531-47.140624-57.597657 0-.265624 0-.503906.007812-.75 7.917969 4.402344 16.972656 7.050782 26.613281 7.347657-15.777343-10.527344-26.148437-28.523438-26.148437-48.910157 0-10.765624 2.910156-20.851562 7.957031-29.535156 28.976563 35.554688 72.28125 58.9375 121.117187 61.394532-1.007812-4.304688-1.527343-8.789063-1.527343-13.398438 0-32.4375 26.316406-58.753906 58.765625-58.753906 16.902344 0 32.167968 7.144531 42.890625 18.566406 13.386719-2.640625 25.957031-7.53125 37.3125-14.261719-4.394531 13.714844-13.707031 25.222657-25.839844 32.5 11.886719-1.421875 23.214844-4.574219 33.742187-9.253906-7.863281 11.785156-17.835937 22.136719-29.308593 30.429687zm0 0"/>
        </g>
    </symbol>
    <symbol id="twitter-square" viewBox="0 0 512 512">
        <g>
            <path d="m475.074219 0h-438.148438c-20.394531 0-36.925781 16.53125-36.925781 36.925781v438.148438c0 20.394531 16.53125 36.925781 36.925781 36.925781h438.148438c20.394531 0 36.925781-16.53125 36.925781-36.925781v-438.148438c0-20.394531-16.53125-36.925781-36.925781-36.925781zm-102.1875 199.601562c.113281 2.519532.167969 5.050782.167969 7.59375 0 77.644532-59.101563 167.179688-167.183594 167.183594h.003906-.003906c-33.183594 0-64.0625-9.726562-90.066406-26.394531 4.597656.542969 9.277343.8125 14.015624.8125 27.53125 0 52.867188-9.390625 72.980469-25.152344-25.722656-.476562-47.410156-17.464843-54.894531-40.8125 3.582031.6875 7.265625 1.0625 11.042969 1.0625 5.363281 0 10.558593-.722656 15.496093-2.070312-26.886718-5.382813-47.140624-29.144531-47.140624-57.597657 0-.265624 0-.503906.007812-.75 7.917969 4.402344 16.972656 7.050782 26.613281 7.347657-15.777343-10.527344-26.148437-28.523438-26.148437-48.910157 0-10.765624 2.910156-20.851562 7.957031-29.535156 28.976563 35.554688 72.28125 58.9375 121.117187 61.394532-1.007812-4.304688-1.527343-8.789063-1.527343-13.398438 0-32.4375 26.316406-58.753906 58.765625-58.753906 16.902344 0 32.167968 7.144531 42.890625 18.566406 13.386719-2.640625 25.957031-7.53125 37.3125-14.261719-4.394531 13.714844-13.707031 25.222657-25.839844 32.5 11.886719-1.421875 23.214844-4.574219 33.742187-9.253906-7.863281 11.785156-17.835937 22.136719-29.308593 30.429687zm0 0"/>
        </g>
    </symbol>
    <symbol id="facebook" viewBox="0 0 512 512">
        <g>
            <path d="M288,176v-64c0-17.664,14.336-32,32-32h32V0h-64c-53.024,0-96,42.976-96,96v80h-64v80h64v256h96V256h64l32-80H288z"/>
        </g>
    </symbol>
    <symbol id="facebook-circle" viewBox="0 0 512 512">
        <g>
            <path d="m297.277344 508.667969c-2.132813.347656-4.273438.667969-6.421875.960937 2.148437-.292968 4.289062-.613281 6.421875-.960937zm0 0"/>
            <path d="m302.398438 507.792969c-1.019532.1875-2.039063.359375-3.058594.535156 1.019531-.175781 2.039062-.347656 3.058594-.535156zm0 0"/>
            <path d="m285.136719 510.339844c-2.496094.28125-5.007813.53125-7.527344.742187 2.519531-.210937 5.03125-.460937 7.527344-.742187zm0 0"/>
            <path d="m290.054688 509.738281c-1.199219.160157-2.40625.308594-3.609376.449219 1.203126-.140625 2.410157-.289062 3.609376-.449219zm0 0"/>
            <path d="m309.367188 506.410156c-.898438.191406-1.800782.382813-2.703126.566406.902344-.183593 1.804688-.375 2.703126-.566406zm0 0"/>
            <path d="m326.664062 502.113281c-.726562.207031-1.453124.402344-2.179687.605469.726563-.203125 1.453125-.398438 2.179687-.605469zm0 0"/>
            <path d="m321.433594 503.542969c-.789063.207031-1.582032.417969-2.375.617187.792968-.199218 1.585937-.40625 2.375-.617187zm0 0"/>
            <path d="m314.589844 505.253906c-.835938.195313-1.679688.378906-2.523438.566406.84375-.1875 1.6875-.371093 2.523438-.566406zm0 0"/>
            <path d="m277.527344 511.089844c-1.347656.113281-2.695313.214844-4.046875.304687 1.351562-.089843 2.699219-.191406 4.046875-.304687zm0 0"/>
            <path d="m512 256c0-141.363281-114.636719-256-256-256s-256 114.636719-256 256 114.636719 256 256 256c1.503906 0 3-.03125 4.5-.058594v-199.285156h-55v-64.097656h55v-47.167969c0-54.703125 33.394531-84.476563 82.191406-84.476563 23.367188 0 43.453125 1.742188 49.308594 2.519532v57.171875h-33.648438c-26.546874 0-31.6875 12.617187-31.6875 31.128906v40.824219h63.476563l-8.273437 64.097656h-55.203126v189.453125c107.003907-30.675781 185.335938-129.257813 185.335938-246.109375zm0 0"/>
            <path d="m272.914062 511.429688c-2.664062.171874-5.339843.308593-8.023437.398437 2.683594-.089844 5.359375-.226563 8.023437-.398437zm0 0"/>
            <path d="m264.753906 511.835938c-1.414062.046874-2.832031.082031-4.25.105468 1.417969-.023437 2.835938-.058594 4.25-.105468zm0 0"/>
        </g>
    </symbol>
    <symbol id="facebook-square" viewBox="0 0 512 512">
        <g>
            <path d="M448,0H64C28.704,0,0,28.704,0,64v384c0,35.296,28.704,64,64,64h192V336h-64v-80h64v-64c0-53.024,42.976-96,96-96h64v80
			         h-32c-17.664,0-32-1.664-32,16v64h80l-32,80h-48v176h96c35.296,0,64-28.704,64-64V64C512,28.704,483.296,0,448,0z"/>
        </g>
    </symbol>
    <symbol id="ok" viewBox="0 0 512.008 512.008">
        <g>
            <g>
                <path d="M256.002,0c-70.592,0-128,57.408-128,128s57.408,128,128,128s128-57.408,128-128S326.594,0,256.002,0z M256.002,192
			c-35.296,0-64-28.704-64-64s28.704-64,64-64s64,28.704,64,64S291.298,192,256.002,192z"/>
            </g>
        </g>
        <g>
            <g>
                <path d="M425.73,252.448c-12.512-12.512-32.736-12.512-45.248,0c-68.608,68.608-180.288,68.608-248.928,0
			c-12.512-12.512-32.736-12.512-45.248,0c-12.512,12.512-12.512,32.736,0,45.28c39.808,39.808,90.272,62.496,142.304,68.416
			l-91.232,91.232c-12.512,12.512-12.512,32.736,0,45.248s32.736,12.512,45.248,0l73.376-73.376l73.376,73.376
			c6.24,6.24,14.432,9.376,22.624,9.376c8.192,0,16.384-3.136,22.624-9.376c12.512-12.512,12.512-32.736,0-45.248l-91.232-91.232
			c52.032-5.92,102.496-28.608,142.304-68.416C438.21,285.216,438.21,264.96,425.73,252.448z"/>
            </g>
        </g>
    </symbol>
    <symbol id="ok-circle" viewBox="0 0 97.75 97.75">
        <g>
            <path d="M48.921,40.507c4.667-0.017,8.384-3.766,8.367-8.443c-0.017-4.679-3.742-8.402-8.411-8.406
			c-4.708-0.005-8.468,3.787-8.432,8.508C40.48,36.826,44.239,40.524,48.921,40.507z"/>
            <path d="M48.875,0C21.882,0,0,21.883,0,48.875S21.882,97.75,48.875,97.75S97.75,75.867,97.75,48.875S75.868,0,48.875,0z
			 M48.945,14.863c9.52,0.026,17.161,7.813,17.112,17.438c-0.048,9.403-7.814,17.024-17.318,16.992
			c-9.407-0.032-17.122-7.831-17.066-17.253C31.726,22.515,39.445,14.837,48.945,14.863z M68.227,56.057
			c-2.105,2.161-4.639,3.725-7.453,4.816c-2.66,1.031-5.575,1.55-8.461,1.896c0.437,0.474,0.642,0.707,0.914,0.979
			c3.916,3.937,7.851,7.854,11.754,11.802c1.33,1.346,1.607,3.014,0.875,4.577c-0.799,1.71-2.592,2.834-4.351,2.713
			c-1.114-0.077-1.983-0.63-2.754-1.407c-2.956-2.974-5.968-5.895-8.862-8.925c-0.845-0.882-1.249-0.714-1.994,0.052
			c-2.973,3.062-5.995,6.075-9.034,9.072c-1.365,1.346-2.989,1.59-4.573,0.82c-1.683-0.814-2.753-2.533-2.671-4.262
			c0.058-1.166,0.632-2.06,1.434-2.858c3.877-3.869,7.742-7.75,11.608-11.628c0.257-0.257,0.495-0.53,0.868-0.93
			c-5.273-0.551-10.028-1.849-14.099-5.032c-0.506-0.396-1.027-0.778-1.487-1.222c-1.783-1.711-1.962-3.672-0.553-5.69
			c1.207-1.728,3.231-2.19,5.336-1.197c0.408,0.191,0.796,0.433,1.168,0.689c7.586,5.213,18.008,5.356,25.624,0.233
			c0.754-0.576,1.561-1.05,2.496-1.289c1.816-0.468,3.512,0.201,4.486,1.791C69.613,52.874,69.6,54.646,68.227,56.057z"/>
        </g>
    </symbol>
    <symbol id="ok-square" viewBox="0 0 94 94">
        <g>
            <path d="M47.051,37.59c5.247-0.017,9.426-4.23,9.407-9.489c-0.021-5.259-4.207-9.448-9.456-9.452
			c-5.293-0.005-9.52,4.259-9.479,9.566C37.562,33.454,41.788,37.612,47.051,37.59z"/>
            <path d="M89,0H5C2.239,0,0,2.238,0,5v84c0,2.762,2.239,5,5,5h84c2.762,0,5-2.238,5-5V5C94,2.238,91.762,0,89,0z M47.08,8.766
			c10.699,0.027,19.289,8.781,19.236,19.602c-0.057,10.57-8.787,19.138-19.469,19.102c-10.576-0.036-19.248-8.803-19.188-19.396
			C27.722,17.365,36.4,8.734,47.08,8.766z M68.753,55.072c-2.366,2.431-5.214,4.187-8.378,5.416
			c-2.991,1.156-6.268,1.742-9.512,2.13c0.49,0.534,0.721,0.793,1.025,1.102c4.404,4.425,8.826,8.832,13.215,13.27
			c1.494,1.511,1.81,3.386,0.985,5.145c-0.901,1.925-2.916,3.188-4.894,3.052c-1.252-0.088-2.228-0.711-3.094-1.582
			c-3.324-3.345-6.711-6.627-9.965-10.031c-0.947-0.992-1.403-0.807-2.241,0.056c-3.343,3.442-6.738,6.831-10.155,10.2
			c-1.535,1.514-3.36,1.785-5.143,0.922c-1.892-0.917-3.094-2.848-3.001-4.791c0.064-1.312,0.71-2.314,1.611-3.214
			c4.356-4.351,8.702-8.713,13.05-13.072c0.289-0.288,0.557-0.597,0.976-1.045c-5.929-0.619-11.275-2.077-15.85-5.657
			c-0.567-0.445-1.154-0.875-1.674-1.373c-2.002-1.924-2.203-4.125-0.618-6.396c1.354-1.942,3.632-2.464,5.997-1.349
			c0.459,0.215,0.895,0.486,1.313,0.775c8.528,5.86,20.245,6.023,28.806,0.266c0.847-0.647,1.754-1.183,2.806-1.449
			c2.045-0.525,3.947,0.224,5.045,2.012C70.314,51.496,70.297,53.488,68.753,55.072z"/>
        </g>
    </symbol>
    <symbol id="vk" viewBox="0 0 24 24">
        <g>
            <path d="m19.915 13.028c-.388-.49-.277-.708 0-1.146.005-.005 3.208-4.431 3.538-5.932l.002-.001c.164-.547 0-.949-.793-.949h-2.624c-.668 0-.976.345-1.141.731 0 0-1.336 3.198-3.226 5.271-.61.599-.892.791-1.225.791-.164 0-.419-.192-.419-.739v-5.105c0-.656-.187-.949-.74-.949h-4.126c-.419 0-.668.306-.668.591 0 .622.945.765 1.043 2.515v3.797c0 .832-.151.985-.486.985-.892 0-3.057-3.211-4.34-6.886-.259-.713-.512-1.001-1.185-1.001h-2.625c-.749 0-.9.345-.9.731 0 .682.892 4.073 4.148 8.553 2.17 3.058 5.226 4.715 8.006 4.715 1.671 0 1.875-.368 1.875-1.001 0-2.922-.151-3.198.686-3.198.388 0 1.056.192 2.616 1.667 1.783 1.749 2.076 2.532 3.074 2.532h2.624c.748 0 1.127-.368.909-1.094-.499-1.527-3.871-4.668-4.023-4.878z"/>
        </g>
    </symbol>
    <symbol id="vk-circle" viewBox="0 0 97.75 97.75">
        <g>
            <path d="M48.875,0C21.883,0,0,21.882,0,48.875S21.883,97.75,48.875,97.75S97.75,75.868,97.75,48.875S75.867,0,48.875,0z
		 M73.667,54.161c2.278,2.225,4.688,4.319,6.733,6.774c0.906,1.086,1.76,2.209,2.41,3.472c0.928,1.801,0.09,3.776-1.522,3.883
		l-10.013-0.002c-2.586,0.214-4.644-0.829-6.379-2.597c-1.385-1.409-2.67-2.914-4.004-4.371c-0.545-0.598-1.119-1.161-1.803-1.604
		c-1.365-0.888-2.551-0.616-3.333,0.81c-0.797,1.451-0.979,3.059-1.055,4.674c-0.109,2.361-0.821,2.978-3.19,3.089
		c-5.062,0.237-9.865-0.531-14.329-3.083c-3.938-2.251-6.986-5.428-9.642-9.025c-5.172-7.012-9.133-14.708-12.692-22.625
		c-0.801-1.783-0.215-2.737,1.752-2.774c3.268-0.063,6.536-0.055,9.804-0.003c1.33,0.021,2.21,0.782,2.721,2.037
		c1.766,4.345,3.931,8.479,6.644,12.313c0.723,1.021,1.461,2.039,2.512,2.76c1.16,0.796,2.044,0.533,2.591-0.762
		c0.35-0.823,0.501-1.703,0.577-2.585c0.26-3.021,0.291-6.041-0.159-9.05c-0.28-1.883-1.339-3.099-3.216-3.455
		c-0.956-0.181-0.816-0.535-0.351-1.081c0.807-0.944,1.563-1.528,3.074-1.528l11.313-0.002c1.783,0.35,2.183,1.15,2.425,2.946
		l0.01,12.572c-0.021,0.695,0.349,2.755,1.597,3.21c1,0.33,1.66-0.472,2.258-1.105c2.713-2.879,4.646-6.277,6.377-9.794
		c0.764-1.551,1.423-3.156,2.063-4.764c0.476-1.189,1.216-1.774,2.558-1.754l10.894,0.013c0.321,0,0.647,0.003,0.965,0.058
		c1.836,0.314,2.339,1.104,1.771,2.895c-0.894,2.814-2.631,5.158-4.329,7.508c-1.82,2.516-3.761,4.944-5.563,7.471
		C71.48,50.992,71.611,52.155,73.667,54.161z"/>
        </g>
    </symbol>
    <symbol id="vk-square" viewBox="0 0 94 94">
        <g>
            <path d="M89,0H5C2.238,0,0,2.239,0,5v84c0,2.761,2.238,5,5,5h84c2.762,0,5-2.239,5-5V5C94,2.239,91.762,0,89,0z M74.869,52.943
		c2.562,2.5,5.271,4.854,7.572,7.617c1.018,1.22,1.978,2.48,2.709,3.899c1.041,2.024,0.101,4.247-1.713,4.366l-11.256-0.003
		c-2.906,0.239-5.22-0.931-7.172-2.918c-1.555-1.585-3.001-3.277-4.5-4.914c-0.611-0.673-1.259-1.306-2.025-1.806
		c-1.534-0.996-2.867-0.692-3.748,0.909c-0.896,1.63-1.103,3.438-1.185,5.255c-0.125,2.655-0.925,3.348-3.588,3.471
		c-5.69,0.268-11.091-0.596-16.108-3.463c-4.429-2.53-7.854-6.104-10.838-10.146c-5.816-7.883-10.27-16.536-14.27-25.437
		c-0.901-2.005-0.242-3.078,1.967-3.119c3.676-0.073,7.351-0.063,11.022-0.004c1.496,0.023,2.485,0.879,3.058,2.289
		c1.985,4.885,4.421,9.533,7.471,13.843c0.813,1.147,1.643,2.292,2.823,3.103c1.304,0.896,2.298,0.601,2.913-0.854
		c0.393-0.928,0.563-1.914,0.647-2.906c0.292-3.396,0.327-6.792-0.177-10.175c-0.315-2.116-1.507-3.483-3.617-3.883
		c-1.074-0.204-0.917-0.602-0.395-1.215c0.906-1.062,1.76-1.718,3.456-1.718l12.721-0.002c2.006,0.392,2.452,1.292,2.725,3.311
		l0.012,14.133c-0.021,0.782,0.391,3.098,1.795,3.61c1.123,0.371,1.868-0.53,2.54-1.244c3.048-3.235,5.22-7.056,7.167-11.009
		c0.857-1.743,1.6-3.549,2.32-5.356c0.533-1.337,1.367-1.995,2.875-1.971l12.246,0.013c0.36,0,0.729,0.004,1.086,0.063
		c2.062,0.355,2.627,1.243,1.99,3.257c-1.004,3.163-2.959,5.799-4.871,8.441c-2.043,2.825-4.224,5.557-6.252,8.396
		C72.411,49.38,72.561,50.688,74.869,52.943z"/>
        </g>
    </symbol>
    <symbol id="youtube" viewBox="0 0 511.627 511.627">
        <g>
            <path d="M459.954,264.376c-2.471-11.233-7.949-20.653-16.416-28.264c-8.474-7.611-18.227-12.085-29.27-13.418
			c-35.02-3.806-87.837-5.708-158.457-5.708c-70.618,0-123.341,1.903-158.174,5.708c-11.227,1.333-21.029,5.807-29.407,13.418
			c-8.376,7.614-13.896,17.035-16.562,28.264c-4.948,22.083-7.423,55.391-7.423,99.931c0,45.299,2.475,78.61,7.423,99.93
			c2.478,11.225,7.951,20.653,16.421,28.261c8.47,7.614,18.225,11.991,29.263,13.134c35.026,3.997,87.847,5.996,158.461,5.996
			c70.609,0,123.44-1.999,158.453-5.996c11.043-1.143,20.748-5.52,29.126-13.134c8.377-7.607,13.897-17.036,16.56-28.261
			c4.948-22.083,7.426-55.391,7.426-99.93C467.377,319.007,464.899,285.695,459.954,264.376z M165.025,293.218h-30.549v162.45
			h-28.549v-162.45h-29.98v-26.837h89.079V293.218z M242.11,455.668H216.7v-15.421c-10.278,11.615-19.989,17.419-29.125,17.419
			c-8.754,0-14.275-3.524-16.556-10.564c-1.521-4.568-2.286-11.519-2.286-20.844V314.627h25.41v103.924
			c0,6.088,0.096,9.421,0.288,9.993c0.571,3.997,2.568,5.995,5.996,5.995c5.138,0,10.566-3.997,16.274-11.991V314.627h25.41V455.668
			z M339.183,413.411c0,13.894-0.855,23.417-2.56,28.558c-3.244,10.462-9.996,15.697-20.273,15.697
			c-9.137,0-17.986-5.235-26.556-15.697v13.702h-25.406v-189.29h25.406v61.955c8.189-10.273,17.036-15.413,26.556-15.413
			c10.277,0,17.029,5.331,20.273,15.988c1.704,4.948,2.56,14.369,2.56,28.264V413.411z M435.685,390.003h-51.104v24.839
			c0,13.134,4.374,19.697,13.131,19.697c6.279,0,10.089-3.422,11.42-10.28c0.376-1.902,0.571-7.706,0.571-17.412h25.981v3.71
			c0,9.329-0.195,14.846-0.572,16.563c-0.567,5.133-2.56,10.273-5.995,15.413c-6.852,10.089-17.139,15.133-30.841,15.133
			c-13.127,0-23.407-4.855-30.833-14.558c-5.517-7.043-8.275-18.083-8.275-33.12v-49.396c0-15.036,2.662-26.076,7.987-33.119
			c7.427-9.705,17.61-14.558,30.557-14.558c12.755,0,22.85,4.853,30.263,14.558c5.146,7.043,7.71,18.083,7.71,33.119V390.003
			L435.685,390.003z"/>
            <path d="M302.634,336.043c-4.38,0-8.658,2.101-12.847,6.283v85.934c4.188,4.186,8.467,6.279,12.847,6.279
			c7.419,0,11.14-6.372,11.14-19.13v-60.236C313.773,342.418,310.061,336.043,302.634,336.043z"/>
            <path d="M397.428,336.043c-8.565,0-12.847,6.475-12.847,19.41v13.134h25.693v-13.134
			C410.274,342.511,405.99,336.043,397.428,336.043z"/>
            <path d="M148.473,113.917v77.375h28.549v-77.375L211.563,0h-29.121l-19.41,75.089L142.759,0h-30.262
			c5.33,15.99,11.516,33.785,18.559,53.391C140.003,79.656,145.805,99.835,148.473,113.917z"/>
            <path d="M249.82,193.291c13.134,0,23.219-4.854,30.262-14.561c5.332-7.043,7.994-18.274,7.994-33.689V95.075
			c0-15.225-2.669-26.363-7.994-33.406c-7.043-9.707-17.128-14.561-30.262-14.561c-12.756,0-22.75,4.854-29.98,14.561
			c-5.327,7.043-7.992,18.181-7.992,33.406v49.965c0,15.225,2.662,26.457,7.992,33.689
			C227.073,188.437,237.063,193.291,249.82,193.291z M237.541,89.935c0-13.134,4.093-19.701,12.279-19.701
			s12.275,6.567,12.275,19.701v59.955c0,13.328-4.089,19.985-12.275,19.985s-12.279-6.661-12.279-19.985V89.935z"/>
            <path d="M328.328,193.291c9.523,0,19.328-5.901,29.413-17.705v15.703h25.981V48.822h-25.981v108.777
			c-5.712,8.186-11.133,12.275-16.279,12.275c-3.429,0-5.428-2.093-5.996-6.28c-0.191-0.381-0.287-3.715-0.287-9.994V48.822h-25.981
			v112.492c0,9.705,0.767,16.84,2.286,21.411C313.961,189.768,319.574,193.291,328.328,193.291z"/>
        </g>
    </symbol>
    <symbol id="youtube-circle" viewBox="0 0 97.75 97.75">
        <g>
            <polygon points="25.676,52.482 29.551,52.482 29.551,73.455 33.217,73.455 33.217,52.482 37.164,52.482 37.164,49.047
			25.676,49.047 		"/>
            <path d="M56.674,55.046c-1.212,0-2.343,0.662-3.406,1.972v-7.972h-3.295v24.409h3.295v-1.762c1.103,1.361,2.233,2.013,3.406,2.013
			c1.311,0,2.193-0.69,2.633-2.044c0.221-0.771,0.334-1.982,0.334-3.665v-7.242c0-1.722-0.113-2.924-0.334-3.655
			C58.868,55.736,57.984,55.046,56.674,55.046z M56.344,68.255c0,1.644-0.482,2.454-1.434,2.454c-0.541,0-1.092-0.259-1.643-0.811
			V58.814c0.551-0.545,1.102-0.803,1.643-0.803c0.951,0,1.434,0.842,1.434,2.482V68.255z"/>
            <path d="M43.824,69.167c-0.731,1.033-1.422,1.542-2.084,1.542c-0.44,0-0.691-0.259-0.771-0.771c-0.03-0.106-0.03-0.508-0.03-1.28
			v-13.39h-3.296v14.379c0,1.285,0.111,2.153,0.291,2.705c0.331,0.922,1.063,1.354,2.123,1.354c1.213,0,2.457-0.732,3.767-2.234
			v1.984h3.298V55.268h-3.298V69.167z"/>
            <path d="M46.653,38.466c1.073,0,1.588-0.851,1.588-2.551v-7.731c0-1.701-0.515-2.548-1.588-2.548c-1.074,0-1.59,0.848-1.59,2.548
			v7.731C45.063,37.616,45.579,38.466,46.653,38.466z"/>
            <path d="M48.875,0C21.882,0,0,21.882,0,48.875S21.882,97.75,48.875,97.75S97.75,75.868,97.75,48.875S75.868,0,48.875,0z
			 M54.311,22.86h3.321v13.532c0,0.781,0,1.186,0.04,1.295c0.073,0.516,0.335,0.78,0.781,0.78c0.666,0,1.365-0.516,2.104-1.559
			V22.86h3.33v18.379h-3.33v-2.004c-1.326,1.52-2.59,2.257-3.805,2.257c-1.072,0-1.812-0.435-2.146-1.365
			c-0.184-0.557-0.295-1.436-0.295-2.733V22.86L54.311,22.86z M41.733,28.853c0-1.965,0.334-3.401,1.042-4.33
			c0.921-1.257,2.218-1.885,3.878-1.885c1.668,0,2.964,0.628,3.885,1.885c0.698,0.928,1.032,2.365,1.032,4.33v6.436
			c0,1.954-0.334,3.403-1.032,4.322c-0.921,1.254-2.217,1.881-3.885,1.881c-1.66,0-2.957-0.627-3.878-1.881
			c-0.708-0.919-1.042-2.369-1.042-4.322V28.853z M32.827,16.576l2.622,9.685l2.519-9.685h3.735L37.26,31.251v9.989h-3.692v-9.989
			c-0.335-1.77-1.074-4.363-2.259-7.803c-0.778-2.289-1.589-4.585-2.367-6.872H32.827z M75.186,75.061
			c-0.668,2.899-3.039,5.039-5.894,5.358c-6.763,0.755-13.604,0.759-20.42,0.755c-6.813,0.004-13.658,0-20.419-0.755
			c-2.855-0.319-5.227-2.458-5.893-5.358c-0.951-4.129-0.951-8.638-0.951-12.89s0.012-8.76,0.962-12.89
			c0.667-2.9,3.037-5.04,5.892-5.358c6.762-0.755,13.606-0.759,20.421-0.755c6.813-0.004,13.657,0,20.419,0.755
			c2.855,0.319,5.227,2.458,5.896,5.358c0.948,4.13,0.942,8.638,0.942,12.89S76.137,70.932,75.186,75.061z"/>
            <path d="M67.17,55.046c-1.686,0-2.995,0.619-3.947,1.864c-0.699,0.92-1.018,2.342-1.018,4.285v6.371
			c0,1.933,0.357,3.365,1.059,4.276c0.951,1.242,2.264,1.863,3.988,1.863c1.721,0,3.072-0.651,3.984-1.972
			c0.4-0.584,0.66-1.245,0.77-1.975c0.031-0.33,0.07-1.061,0.07-2.124v-0.479h-3.361c0,1.32-0.043,2.053-0.072,2.232
			c-0.188,0.881-0.662,1.321-1.473,1.321c-1.132,0-1.686-0.84-1.686-2.522v-3.226h6.592v-3.767c0-1.943-0.329-3.365-1.02-4.285
			C70.135,55.666,68.824,55.046,67.17,55.046z M68.782,62.218h-3.296v-1.683c0-1.682,0.553-2.523,1.654-2.523
			c1.09,0,1.642,0.842,1.642,2.523V62.218z"/>
        </g>
    </symbol>
    <symbol id="youtube-square" viewBox="0 0 438.536 438.536">
        <g>
            <path d="M414.41,24.123C398.333,8.042,378.963,0,356.315,0H82.228C59.58,0,40.21,8.042,24.126,24.123
			C8.045,40.207,0.003,59.576,0.003,82.225v274.084c0,22.647,8.042,42.018,24.123,58.102c16.084,16.084,35.454,24.126,58.102,24.126
			h274.084c22.648,0,42.018-8.042,58.095-24.126c16.084-16.084,24.126-35.454,24.126-58.102V82.225
			C438.532,59.576,430.49,40.204,414.41,24.123z M258.958,63.378h19.13v77.654c0,4.57,0.089,7.045,0.28,7.426
			c0.192,3.046,1.719,4.567,4.572,4.567c3.806,0,7.807-2.948,11.991-8.848V63.378h19.13v105.637h-19.13h-0.007v-11.425
			c-7.803,8.563-15.129,12.85-21.98,12.85c-6.088,0-10.181-2.568-12.278-7.708c-1.144-3.424-1.708-8.66-1.708-15.704V63.378
			L258.958,63.378z M186.725,97.64c0-11.038,1.999-19.32,5.996-24.838c5.138-7.232,12.559-10.85,22.266-10.85
			c9.329,0,16.754,3.621,22.268,10.85c4,5.519,5.999,13.8,5.999,24.838v37.117c0,11.421-1.999,19.701-5.999,24.839
			c-5.514,7.236-12.939,10.852-22.268,10.852c-9.707,0-17.128-3.619-22.266-10.852c-3.997-5.52-5.996-13.8-5.996-24.839V97.64z
			 M135.331,27.119l15.133,55.677l14.56-55.677h21.414l-25.697,84.51h0.004v57.386h-21.127v-57.386
			c-2.096-10.468-6.473-25.505-13.134-45.108c-4.377-13.134-6.567-19.701-6.567-19.701l-6.855-19.701H135.331L135.331,27.119z
			 M370.593,371.729c-1.903,8.18-5.948,15.126-12.139,20.842c-6.181,5.708-13.363,9.041-21.55,9.996
			c-26.073,2.851-65.288,4.28-117.628,4.28c-52.344,0-91.553-1.43-117.628-4.28c-8.183-0.955-15.367-4.288-21.555-9.996
			c-6.186-5.716-10.229-12.662-12.133-20.842c-3.805-15.991-5.708-40.737-5.708-74.233c0-32.935,1.903-57.67,5.708-74.233
			c1.905-8.375,5.948-15.371,12.133-20.988c6.188-5.617,13.466-8.901,21.842-9.851c25.882-2.859,64.997-4.284,117.341-4.284
			c52.535,0,91.746,1.429,117.628,4.284c8.187,0.953,15.41,4.233,21.693,9.851c6.283,5.614,10.38,12.609,12.282,20.988
			c3.61,15.797,5.421,40.539,5.421,74.233C376.301,330.991,374.397,355.733,370.593,371.729z"/>
            <polygon points="85.651,244.678 107.921,244.678 107.921,365.445 129.048,365.445 129.048,244.678 151.889,244.678
			151.889,224.692 85.651,224.692 		"/>
            <path d="M190.149,340.607c-4.187,5.896-8.186,8.847-11.991,8.847c-2.665,0-4.093-1.427-4.283-4.281
			c-0.191-0.38-0.287-2.854-0.287-7.426v-77.088h-18.843v82.796c0,7.234,0.572,12.374,1.715,15.413
			c1.712,5.332,5.711,7.994,11.991,7.994c7.042,0,14.275-4.281,21.698-12.847v11.424h19.126V260.666h-19.126V340.607z"/>
            <path d="M264.099,259.235c-6.852,0-13.326,3.806-19.411,11.423v-45.966h-19.13v140.753h19.13v-10.279
			c6.276,7.802,12.755,11.703,19.411,11.703c7.806,0,12.847-3.997,15.126-11.991c1.334-3.997,1.998-10.944,1.998-20.841v-41.682
			c0-10.089-0.671-17.132-1.998-21.129C276.945,263.232,271.904,259.235,264.099,259.235z M262.384,335.468
			c0,9.325-2.758,13.982-8.281,13.989c-3.23,0-6.376-1.525-9.422-4.571v-63.954c3.046-3.038,6.191-4.564,9.422-4.564
			c5.523,0,8.281,4.753,8.281,14.271V335.468z"/>
            <path d="M333.466,335.324c0,1.998-0.049,3.565-0.137,4.709c-0.093,1.143-0.145,1.81-0.145,1.998
			c-1.14,4.945-3.997,7.419-8.565,7.419c-6.472,0-9.709-4.853-9.709-14.558v-18.555h37.973v-21.703
			c0-11.037-1.995-19.219-5.995-24.551c-5.134-7.231-12.56-10.852-22.269-10.852s-17.319,3.62-22.843,10.852
			c-3.806,5.14-5.708,13.329-5.708,24.551v36.832c0,11.231,1.998,19.418,5.995,24.558c5.523,7.231,13.23,10.852,23.131,10.852
			c10.088,0,17.699-3.806,22.843-11.423c2.282-3.429,3.716-7.234,4.284-11.42c0.377-2.666,0.568-6.759,0.568-12.278v-2.563v-0.007
			h-19.417v6.14H333.466z M314.917,290.925c0-9.705,3.142-14.558,9.422-14.558c6.283,0,9.421,4.853,9.421,14.558v9.712h-18.843
			V290.925z"/>
            <path d="M214.987,153.025c6.091,0,9.135-4.851,9.135-14.558v-44.54c0-9.895-3.044-14.847-9.135-14.847
			c-6.09,0-9.135,4.952-9.135,14.847v44.54C205.852,148.171,208.897,153.025,214.987,153.025z"/>
        </g>
    </symbol>
    <symbol id="menu-burger" viewBox="0 0 512 512">
        <g>
            <path d="m464.883 64.267h-417.766c-25.98 0-47.117 21.136-47.117 47.149 0 25.98 21.137 47.117 47.117 47.117h417.766c25.98 0 47.117-21.137 47.117-47.117 0-26.013-21.137-47.149-47.117-47.149z"/>
            <path d="m464.883 208.867h-417.766c-25.98 0-47.117 21.136-47.117 47.149 0 25.98 21.137 47.117 47.117 47.117h417.766c25.98 0 47.117-21.137 47.117-47.117 0-26.013-21.137-47.149-47.117-47.149z"/>
            <path d="m464.883 353.467h-417.766c-25.98 0-47.117 21.137-47.117 47.149 0 25.98 21.137 47.117 47.117 47.117h417.766c25.98 0 47.117-21.137 47.117-47.117 0-26.012-21.137-47.149-47.117-47.149z"/>
        </g>
    </symbol>
    <symbol id="search" viewBox="-1 0 136 136.21852">
        <g id="surface1">
            <path d="M 93.148438 80.832031 C 109.5 57.742188 104.03125 25.769531 80.941406 9.421875 C 57.851562 -6.925781 25.878906 -1.460938 9.53125 21.632812 C -6.816406 44.722656 -1.351562 76.691406 21.742188 93.039062 C 38.222656 104.707031 60.011719 105.605469 77.394531 95.339844 L 115.164062 132.882812 C 119.242188 137.175781 126.027344 137.347656 130.320312 133.269531 C 134.613281 129.195312 134.785156 122.410156 130.710938 118.117188 C 130.582031 117.980469 130.457031 117.855469 130.320312 117.726562 Z M 51.308594 84.332031 C 33.0625 84.335938 18.269531 69.554688 18.257812 51.308594 C 18.253906 33.0625 33.035156 18.269531 51.285156 18.261719 C 69.507812 18.253906 84.292969 33.011719 84.328125 51.234375 C 84.359375 69.484375 69.585938 84.300781 51.332031 84.332031 C 51.324219 84.332031 51.320312 84.332031 51.308594 84.332031 Z M 51.308594 84.332031 "
                  style=" stroke:none;fill-rule:nonzero;fill:rgb(0%,0%,0%);fill-opacity:1;"/>
        </g>
    </symbol>
    <symbol id="close" viewBox="0 0 365.696 365.696">
        <g>
            <path d="m243.1875 182.859375 113.132812-113.132813c12.5-12.5 12.5-32.765624 0-45.246093l-15.082031-15.082031c-12.503906-12.503907-32.769531-12.503907-45.25 0l-113.128906 113.128906-113.132813-113.152344c-12.5-12.5-32.765624-12.5-45.246093 0l-15.105469 15.082031c-12.5 12.503907-12.5 32.769531 0 45.25l113.152344 113.152344-113.128906 113.128906c-12.503907 12.503907-12.503907 32.769531 0 45.25l15.082031 15.082031c12.5 12.5 32.765625 12.5 45.246093 0l113.132813-113.132812 113.128906 113.132812c12.503907 12.5 32.769531 12.5 45.25 0l15.082031-15.082031c12.5-12.503906 12.5-32.769531 0-45.25zm0 0"/>
        </g>
    </symbol>
    <symbol id="" viewBox=""></symbol>
    <symbol id="" viewBox=""></symbol>
    <symbol id="" viewBox=""></symbol>
    <symbol id="" viewBox=""></symbol>
    <symbol id="" viewBox=""></symbol>
</svg>
